<mxfile host="65bd71144e">
    <diagram id="pIaEtrtLPv3HG8r1JEND" name="Page-1">
        <mxGraphModel dx="594" dy="561" grid="1" gridSize="10" guides="1" tooltips="1" connect="1" arrows="1" fold="1" page="1" pageScale="1" pageWidth="850" pageHeight="1100" math="0" shadow="0">
            <root>
                <mxCell id="0"/>
                <mxCell id="1" parent="0"/>
                <mxCell id="2" value="" style="rounded=0;whiteSpace=wrap;html=1;" parent="1" vertex="1">
                    <mxGeometry x="80" y="80" width="400" height="300" as="geometry"/>
                </mxCell>
                <mxCell id="3" value="fancy border" style="rounded=0;whiteSpace=wrap;html=1;" parent="1" vertex="1">
                    <mxGeometry x="80" y="80" width="400" height="40" as="geometry"/>
                </mxCell>
                <mxCell id="6" value="Calculate" style="labelPosition=center;verticalLabelPosition=middle;align=center;html=1;shape=mxgraph.basic.button;dx=10;" parent="1" vertex="1">
                    <mxGeometry x="100" y="220" width="100" height="40" as="geometry"/>
                </mxCell>
                <mxCell id="7" value="" style="sketch=0;outlineConnect=0;fontColor=#232F3E;gradientColor=none;fillColor=#D45B07;strokeColor=none;dashed=0;verticalLabelPosition=bottom;verticalAlign=top;align=center;html=1;fontSize=12;fontStyle=0;aspect=fixed;pointerEvents=1;shape=mxgraph.aws4.container_registry_image;" vertex="1" parent="1">
                    <mxGeometry x="340" y="176" width="108" height="108" as="geometry"/>
                </mxCell>
                <mxCell id="9" value="" style="rounded=1;whiteSpace=wrap;html=1;strokeWidth=2;fillWeight=4;hachureGap=8;hachureAngle=45;fillColor=#1ba1e2;sketch=1;" vertex="1" parent="1">
                    <mxGeometry x="90" y="140" width="230" height="20" as="geometry"/>
                </mxCell>
                <mxCell id="11" value="Number" style="strokeWidth=1;shadow=0;dashed=0;align=center;html=1;shape=mxgraph.mockup.text.textBox;fontColor=#666666;align=left;fontSize=17;spacingLeft=4;spacingTop=-3;strokeColor=#666666;mainText=" vertex="1" parent="1">
                    <mxGeometry x="90" y="176" width="120" height="24" as="geometry"/>
                </mxCell>
            </root>
        </mxGraphModel>
    </diagram>
    <diagram name="Copy of Page-1" id="giZ-eQh4_a0jjVT2e3ob">
        <mxGraphModel dx="594" dy="561" grid="1" gridSize="10" guides="1" tooltips="1" connect="1" arrows="1" fold="1" page="1" pageScale="1" pageWidth="850" pageHeight="1100" math="0" shadow="0">
            <root>
                <mxCell id="u3dCDJ-nFgBC4CiTruKW-0"/>
                <mxCell id="u3dCDJ-nFgBC4CiTruKW-1" parent="u3dCDJ-nFgBC4CiTruKW-0"/>
                <mxCell id="u3dCDJ-nFgBC4CiTruKW-2" value="" style="rounded=0;whiteSpace=wrap;html=1;" vertex="1" parent="u3dCDJ-nFgBC4CiTruKW-1">
                    <mxGeometry x="80" y="80" width="400" height="300" as="geometry"/>
                </mxCell>
                <mxCell id="u3dCDJ-nFgBC4CiTruKW-3" value="fancy border" style="rounded=0;whiteSpace=wrap;html=1;" vertex="1" parent="u3dCDJ-nFgBC4CiTruKW-1">
                    <mxGeometry x="80" y="80" width="400" height="40" as="geometry"/>
                </mxCell>
                <mxCell id="u3dCDJ-nFgBC4CiTruKW-4" value="Calculate" style="labelPosition=center;verticalLabelPosition=middle;align=center;html=1;shape=mxgraph.basic.button;dx=10;" vertex="1" parent="u3dCDJ-nFgBC4CiTruKW-1">
                    <mxGeometry x="100" y="220" width="100" height="40" as="geometry"/>
                </mxCell>
                <mxCell id="u3dCDJ-nFgBC4CiTruKW-5" value="" style="sketch=0;outlineConnect=0;fontColor=#232F3E;gradientColor=none;fillColor=#D45B07;strokeColor=none;dashed=0;verticalLabelPosition=bottom;verticalAlign=top;align=center;html=1;fontSize=12;fontStyle=0;aspect=fixed;pointerEvents=1;shape=mxgraph.aws4.container_registry_image;" vertex="1" parent="u3dCDJ-nFgBC4CiTruKW-1">
                    <mxGeometry x="340" y="176" width="108" height="108" as="geometry"/>
                </mxCell>
                <mxCell id="u3dCDJ-nFgBC4CiTruKW-6" value="" style="rounded=1;whiteSpace=wrap;html=1;strokeWidth=2;fillWeight=4;hachureGap=8;hachureAngle=45;fillColor=#1ba1e2;sketch=1;" vertex="1" parent="u3dCDJ-nFgBC4CiTruKW-1">
                    <mxGeometry x="90" y="140" width="230" height="20" as="geometry"/>
                </mxCell>
                <mxCell id="u3dCDJ-nFgBC4CiTruKW-7" value="Number" style="strokeWidth=1;shadow=0;dashed=0;align=center;html=1;shape=mxgraph.mockup.text.textBox;fontColor=#666666;align=left;fontSize=17;spacingLeft=4;spacingTop=-3;strokeColor=#666666;mainText=" vertex="1" parent="u3dCDJ-nFgBC4CiTruKW-1">
                    <mxGeometry x="90" y="176" width="120" height="24" as="geometry"/>
                </mxCell>
                <mxCell id="u3dCDJ-nFgBC4CiTruKW-8" value="" style="rounded=1;whiteSpace=wrap;html=1;strokeWidth=2;fillWeight=4;hachureGap=8;hachureAngle=45;fillColor=#1ba1e2;sketch=1;" vertex="1" parent="u3dCDJ-nFgBC4CiTruKW-1">
                    <mxGeometry x="100" y="284" width="120" height="10" as="geometry"/>
                </mxCell>
            </root>
        </mxGraphModel>
    </diagram>
</mxfile>